<svg id="twitter" xmlns="http://www.w3.org/2000/svg" width="34.66" height="34.65" viewBox="0 0 34.66 34.65">
  <metadata><?xpacket begin="﻿" id="W5M0MpCehiHzreSzNTczkc9d"?>
<x:xmpmeta xmlns:x="adobe:ns:meta/" x:xmptk="Adobe XMP Core 5.6-c140 79.160451, 2017/05/06-01:08:21        ">
   <rdf:RDF xmlns:rdf="http://www.w3.org/1999/02/22-rdf-syntax-ns#">
      <rdf:Description rdf:about=""/>
   </rdf:RDF>
</x:xmpmeta>
                                                                                                    
                                                                                                    
                                                                                                    
                                                                                                    
                                                                                                    
                                                                                                    
                                                                                                    
                                                                                                    
                                                                                                    
                                                                                                    
                                                                                                    
                                                                                                    
                                                                                                    
                                                                                                    
                                                                                                    
                                                                                                    
                                                                                                    
                                                                                                    
                                                                                                    
                                                                                                    
                           
<?xpacket end="w"?></metadata>
<defs>
    <style>
      .cls-1 {
        fill-opacity: 0;
      }

      .cls-1, .cls-2, .cls-3 {
        fill-rule: evenodd;
      }

      .cls-2 {
        fill: #333033;
      }

      .cls-3 {
        fill: #fff;
      }
    </style>
  </defs>
  <g>
    <path id="Clip_2" data-name="Clip 2" class="cls-1" d="M1876,4136.43h34.66v34.66H1876v-34.66Z" transform="translate(-1876 -4136.44)"/>
    <g id="Mask_by_Clip_2" data-name="Mask by Clip 2">
      <path id="Fill_1" data-name="Fill 1" class="cls-2" d="M1910.66,4153.76a17.33,17.33,0,1,0-17.33,17.33,17.331,17.331,0,0,0,17.33-17.33" transform="translate(-1876 -4136.44)"/>
    </g>
  </g>
  <path id="Fill_4" data-name="Fill 4" class="cls-3" d="M1903.86,4147.08c0.08-.04.08-0.06,0.08,0v0.02a0.55,0.55,0,0,1-.11.34,8.4,8.4,0,0,1-1.7,1.77,0.462,0.462,0,0,0-.26.29c0,3.53-.9,7.05-3.47,9.61a12.949,12.949,0,0,1-12.55,2.93,11.769,11.769,0,0,1-2.42-.97c-0.26-.14-0.51-0.29-0.76-0.45-0.06-.05-0.11-0.1-0.06-0.13a0.428,0.428,0,0,1,.29,0,8.6,8.6,0,0,0,3.63-.46,5.581,5.581,0,0,0,2.39-1.27,0.085,0.085,0,0,1,.03-0.03c-0.16-.04-0.32-0.04-0.48-0.07a4.68,4.68,0,0,1-3.5-2.93c-0.04-.11,0-0.17.13-0.15a5.046,5.046,0,0,0,1.66-.05,2.6,2.6,0,0,1-.56-0.17,4.493,4.493,0,0,1-2.78-3.6,2.218,2.218,0,0,1-.03-0.51c0.01-.11.06-0.15,0.16-0.08a4.467,4.467,0,0,0,1.7.47c-0.19-.15-0.37-0.31-0.54-0.47a4.457,4.457,0,0,1-.76-5.28c0.08-.12.14-0.12,0.24-0.01a13.651,13.651,0,0,0,8.8,4.48c0.09,0.02.1,0,.09-0.1a4.747,4.747,0,0,1,.05-1.84,4.329,4.329,0,0,1,.87-1.74,4.518,4.518,0,0,1,1.45-1.19,4.589,4.589,0,0,1,1.81-.51,4.276,4.276,0,0,1,1.9.31,4.187,4.187,0,0,1,1.24.76,1.663,1.663,0,0,1,.23.23,0.167,0.167,0,0,0,.17.04,10.584,10.584,0,0,0,2.56-.98,0.126,0.126,0,0,1,.12-0.01,0.105,0.105,0,0,1,0,.12,3.788,3.788,0,0,1-.72,1.3,2.655,2.655,0,0,1-1.06.94,8.585,8.585,0,0,0,2.16-.61" transform="translate(-1876 -4136.44)"/>
  <path id="Fill_6" data-name="Fill 6" class="cls-3" d="M1888.93,4162.59h0" transform="translate(-1876 -4136.44)"/>
  <path id="Fill_8" data-name="Fill 8" class="cls-3" d="M1888.93,4162.59h0" transform="translate(-1876 -4136.44)"/>
  <path id="Fill_10" data-name="Fill 10" class="cls-3" d="M1889.65,4162.61c0.04,0,0-.02,0,0,0.38,0,0-.04,0,0" transform="translate(-1876 -4136.44)"/>
  <path id="Fill_12" data-name="Fill 12" class="cls-3" d="M1897.11,4145.11a0.075,0.075,0,0,0,.09,0h-0.09Z" transform="translate(-1876 -4136.44)"/>
</svg>
