<svg id="instagram" xmlns="http://www.w3.org/2000/svg" width="34.66" height="34.65" viewBox="0 0 34.66 34.65">
  <metadata><?xpacket begin="﻿" id="W5M0MpCehiHzreSzNTczkc9d"?>
<x:xmpmeta xmlns:x="adobe:ns:meta/" x:xmptk="Adobe XMP Core 5.6-c140 79.160451, 2017/05/06-01:08:21        ">
   <rdf:RDF xmlns:rdf="http://www.w3.org/1999/02/22-rdf-syntax-ns#">
      <rdf:Description rdf:about=""/>
   </rdf:RDF>
</x:xmpmeta>
                                                                                                    
                                                                                                    
                                                                                                    
                                                                                                    
                                                                                                    
                                                                                                    
                                                                                                    
                                                                                                    
                                                                                                    
                                                                                                    
                                                                                                    
                                                                                                    
                                                                                                    
                                                                                                    
                                                                                                    
                                                                                                    
                                                                                                    
                                                                                                    
                                                                                                    
                                                                                                    
                           
<?xpacket end="w"?></metadata>
<defs>
    <style>
      .cls-1 {
        fill-opacity: 0;
      }

      .cls-1, .cls-2, .cls-3 {
        fill-rule: evenodd;
      }

      .cls-2 {
        fill: #333033;
      }

      .cls-3 {
        fill: #fff;
      }
    </style>
  </defs>
  <g>
    <path id="Clip_2" data-name="Clip 2" class="cls-1" d="M1936,4136.43h34.66v34.66H1936v-34.66Z" transform="translate(-1936 -4136.44)"/>
    <g id="Mask_by_Clip_2" data-name="Mask by Clip 2">
      <path id="Fill_1" data-name="Fill 1" class="cls-2" d="M1970.66,4153.76a17.33,17.33,0,1,0-17.33,17.33,17.331,17.331,0,0,0,17.33-17.33" transform="translate(-1936 -4136.44)"/>
    </g>
  </g>
  <path id="Fill_4" data-name="Fill 4" class="cls-3" d="M1959.47,4146.38a1.345,1.345,0,1,1-1.35,1.35,1.342,1.342,0,0,1,1.35-1.35" transform="translate(-1936 -4136.44)"/>
  <path id="Fill_6" data-name="Fill 6" class="cls-3" d="M1953.48,4157.38a3.62,3.62,0,1,0-3.62-3.62,3.619,3.619,0,0,0,3.62,3.62m0-9.27a5.655,5.655,0,1,1-5.66,5.65,5.659,5.659,0,0,1,5.66-5.65" transform="translate(-1936 -4136.44)"/>
  <path id="Fill_8" data-name="Fill 8" class="cls-3" d="M1957.97,4144.44a4.744,4.744,0,0,1,4.74,4.74v9.17a4.742,4.742,0,0,1-4.74,4.73h-9.17a4.742,4.742,0,0,1-4.74-4.73v-9.17a4.744,4.744,0,0,1,4.74-4.74h9.17Zm0,20.8a6.905,6.905,0,0,0,6.9-6.89v-9.17a6.907,6.907,0,0,0-6.9-6.9h-9.17a6.907,6.907,0,0,0-6.9,6.9v9.17a6.905,6.905,0,0,0,6.9,6.89h9.17Z" transform="translate(-1936 -4136.44)"/>
</svg>
