<svg id="facebook" xmlns="http://www.w3.org/2000/svg" width="34.66" height="34.65" viewBox="0 0 34.66 34.65">
  <metadata><?xpacket begin="﻿" id="W5M0MpCehiHzreSzNTczkc9d"?>
<x:xmpmeta xmlns:x="adobe:ns:meta/" x:xmptk="Adobe XMP Core 5.6-c140 79.160451, 2017/05/06-01:08:21        ">
   <rdf:RDF xmlns:rdf="http://www.w3.org/1999/02/22-rdf-syntax-ns#">
      <rdf:Description rdf:about=""/>
   </rdf:RDF>
</x:xmpmeta>
                                                                                                    
                                                                                                    
                                                                                                    
                                                                                                    
                                                                                                    
                                                                                                    
                                                                                                    
                                                                                                    
                                                                                                    
                                                                                                    
                                                                                                    
                                                                                                    
                                                                                                    
                                                                                                    
                                                                                                    
                                                                                                    
                                                                                                    
                                                                                                    
                                                                                                    
                                                                                                    
                           
<?xpacket end="w"?></metadata>
<defs>
    <style>
      .cls-1 {
        fill-opacity: 0;
      }

      .cls-1, .cls-2, .cls-3 {
        fill-rule: evenodd;
      }

      .cls-2 {
        fill: #333033;
      }

      .cls-3 {
        fill: #fff;
      }
    </style>
  </defs>
  <g>
    <path id="Clip_2" data-name="Clip 2" class="cls-1" d="M1756,4136.43h34.66v34.66H1756v-34.66Z" transform="translate(-1756 -4136.44)"/>
    <g id="Mask_by_Clip_2" data-name="Mask by Clip 2">
      <path id="Fill_1" data-name="Fill 1" class="cls-2" d="M1790.66,4153.76a17.33,17.33,0,1,0-17.33,17.33,17.331,17.331,0,0,0,17.33-17.33" transform="translate(-1756 -4136.44)"/>
    </g>
  </g>
  <path id="Fill_4" data-name="Fill 4" class="cls-3" d="M1770.46,4153.79h-1.97a0.28,0.28,0,0,1-.28-0.28v-3.25a0.28,0.28,0,0,1,.28-0.28h1.97v-3.13a3.954,3.954,0,0,1,3.95-3.96h3.72a0.28,0.28,0,0,1,.28.28v3.25a0.28,0.28,0,0,1-.28.28h-2.2a0.982,0.982,0,0,0-.98.98v2.3h3.14a0.276,0.276,0,0,1,.27.3l-0.27,3.25a0.29,0.29,0,0,1-.28.26h-2.86v10.78a0.271,0.271,0,0,1-.27.28h-3.95a0.271,0.271,0,0,1-.27-0.28v-10.78Z" transform="translate(-1756 -4136.44)"/>
</svg>
