<svg id="linkedin" xmlns="http://www.w3.org/2000/svg" width="34.66" height="34.65" viewBox="0 0 34.66 34.65">
  <metadata><?xpacket begin="﻿" id="W5M0MpCehiHzreSzNTczkc9d"?>
<x:xmpmeta xmlns:x="adobe:ns:meta/" x:xmptk="Adobe XMP Core 5.6-c140 79.160451, 2017/05/06-01:08:21        ">
   <rdf:RDF xmlns:rdf="http://www.w3.org/1999/02/22-rdf-syntax-ns#">
      <rdf:Description rdf:about=""/>
   </rdf:RDF>
</x:xmpmeta>
                                                                                                    
                                                                                                    
                                                                                                    
                                                                                                    
                                                                                                    
                                                                                                    
                                                                                                    
                                                                                                    
                                                                                                    
                                                                                                    
                                                                                                    
                                                                                                    
                                                                                                    
                                                                                                    
                                                                                                    
                                                                                                    
                                                                                                    
                                                                                                    
                                                                                                    
                                                                                                    
                           
<?xpacket end="w"?></metadata>
<defs>
    <style>
      .cls-1 {
        fill-opacity: 0;
      }

      .cls-1, .cls-2, .cls-3 {
        fill-rule: evenodd;
      }

      .cls-2 {
        fill: #333033;
      }

      .cls-3 {
        fill: #fefefe;
      }
    </style>
  </defs>
  <g>
    <path id="Clip_2" data-name="Clip 2" class="cls-1" d="M1816,4136.43h34.66v34.66H1816v-34.66Z" transform="translate(-1816 -4136.44)"/>
    <g id="Mask_by_Clip_2" data-name="Mask by Clip 2">
      <path id="Fill_1" data-name="Fill 1" class="cls-2" d="M1850.66,4153.76a17.33,17.33,0,1,0-17.33,17.33,17.331,17.331,0,0,0,17.33-17.33" transform="translate(-1816 -4136.44)"/>
      <g>
        <g>
          <path id="Clip_2-2" data-name="Clip 2" class="cls-1" d="M1824,4143.38h4.77v18.9H1824v-18.9Z" transform="translate(-1816 -4136.44)"/>
          <g id="Mask_by_Clip_2-2" data-name="Mask by Clip 2">
            <path id="Fill_1-2" data-name="Fill 1" class="cls-3" d="M1826.34,4147.78a2.426,2.426,0,1,1,.03,0h-0.03Zm-2.09,14.5h4.24v-12.76h-4.24v12.76Z" transform="translate(-1816 -4136.44)"/>
          </g>
        </g>
        <g>
          <path id="Clip_5" data-name="Clip 5" class="cls-1" d="M1830.83,4149.23h12.94v13.05h-12.94v-13.05Z" transform="translate(-1816 -4136.44)"/>
          <g id="Mask_by_Clip_5" data-name="Mask by Clip 5">
            <path id="Fill_4" data-name="Fill 4" class="cls-3" d="M1830.83,4162.28s0.06-11.56,0-12.76h4.24v1.85h-0.03a4.234,4.234,0,0,1,3.85-2.14c2.79,0,4.88,1.82,4.88,5.73v7.32h-4.24v-6.83c0-1.71-.61-2.88-2.14-2.88a2.334,2.334,0,0,0-2.18,1.55,2.943,2.943,0,0,0-.14,1.04v7.12h-4.24" transform="translate(-1816 -4136.44)"/>
          </g>
        </g>
      </g>
    </g>
  </g>
</svg>
